{"title":"Quiz Show (1994) Ralph Fiennes (DVDrip ITA-ENG)","uid":4232342,"size":1462461907,"categoryP":"video","categoryS":"movies","magnet":"?xt=urn:btih:a6f730dbfa8e660eb7eff99030df3192bfa5995e&amp;dn=Quiz+Show+%281994%29+Ralph+Fiennes+%28DVDrip+ITA-ENG%29&amp;tr=udp%3A%2F%2Ftracker.openbittorrent.com%3A80&amp;tr=udp%3A%2F%2Fopen.demonii.com%3A1337&amp;tr=udp%3A%2F%2Ftracker.coppersurfer.tk%3A6969&amp;tr=udp%3A%2F%2Fexodus.desync.com%3A6969","seeders":5,"leechers":0,"uploader":"Kuthumi","files":-1,"time":1213119211,"description":" &lt;a href=&quot;http://www.imdb.com/title/tt0110932/&quot; rel=&quot;nofollow&quot; target=&quot;_NEW&quot;&gt;http://www.imdb.com/title/tt0110932/&lt;/a&gt;\n\nDual audio track: Italian and original English, both stereo.\nSeparate English subs in srt format.\n\nWith Rob Morrow (Numb3rs) and John Turturro, directed by Robert Redford.\n\nMesmerising, true quality drama about the American celebrity hero who in 1958 confessed publicly that the popular television quiz shows were fixed. \n\nOnly full DVDs remain here on PirateBay. I started to make a new rip, but found this torrent on another site and checked it out. Great picture quality and sound.\n\nNote: The original English soundtrack is #2. Most players on the computer allow choise of soundtrack with right-click. On your standalone DivX player, you use the remote as for a DVD. ConvertXtoDVD will include both sound tracks.\n\nWidescreen 624x336, good stereo.\nBurn tested, runs well in my DivX player.\n\nFormat/Info                      : Audio Video Interleave\nFile size                        : 1.36 GiB\nDuration                         : 2h 6mn\nOveral bit rate                  : 1542 Kbps\nWriting application              : VirtualDubMod 1.5.10.2 (build 2540/release)\nWriting library                  : VirtualDubMod build 2540/release\n\nVideo\nFormat                           : MPEG-4 Visual\nFormat profile                   : Simple@L3\nFormat settings, BVOP            : Yes\nFormat settings, QPel            : No\nFormat settings, GMC             : No warppoints\nFormat settings, Matrix          : Default\nCodec ID                         : XVID\nCodec ID/Hint                    : XviD\nDuration                         : 2h 6mn\nBit rate                         : 1288 Kbps\nWidth                            : 624 pixels\nHeight                           : 336 pixels\nDisplay aspect ratio             : 1.857\nFrame rate                       : 25.000 fps\nResolution                       : 8 bits\nColorimetry                      : 4:2:0\nScan type                        : Progressive\nBits/(Pixel*Frame)               : 0.246\nStream size                      : 1.14 GiB\nWriting library                  : XviD 1.0.1 (UTC 2004-06-05)\n\nAudio #1\nFormat                           : MPEG Audio\nFormat version                   : Version 1\nFormat profile                   : Layer 3\nCodec ID                         : 55\nCodec ID/Hint                    : MP3\nDuration                         : 2h 6mn\nBit rate mode                    : Constant\nBit rate                         : 128 Kbps\nChannel(s)                       : 2 channels\nSampling rate                    : 48.0 KHz\nResolution                       : 16 bits\nVideo delay                      : 600ms\nStream size                      : 116 MiB\n\nAudio #2\nFormat                           : MPEG Audio\nFormat version                   : Version 1\nFormat profile                   : Layer 3\nCodec ID                         : 55\nCodec ID/Hint                    : MP3\nDuration                         : 2h 6mn\nBit rate mode                    : Variable\nBit rate                         : 112 Kbps\nChannel(s)                       : 2 channels\nSampling rate                    : 48.0 KHz\nResolution                       : 16 bits\nVideo delay                      : 500ms\nStream size                      : 101 MiB\nWriting library                  : LAME3.93a\nEncoding settings                : ABR\n","torrent":{"xt":"urn:btih:a6f730dbfa8e660eb7eff99030df3192bfa5995e","amp;dn":"Quiz+Show+%281994%29+Ralph+Fiennes+%28DVDrip+ITA-ENG%29","amp;tr":["udp%3A%2F%2Ftracker.openbittorrent.com%3A80","udp%3A%2F%2Fopen.demonii.com%3A1337","udp%3A%2F%2Ftracker.coppersurfer.tk%3A6969","udp%3A%2F%2Fexodus.desync.com%3A6969"],"infoHash":"a6f730dbfa8e660eb7eff99030df3192bfa5995e","infoHashBuffer":{"type":"Buffer","data":[166,247,48,219,250,142,102,14,183,239,249,144,48,223,49,146,191,165,153,94]},"announce":[],"urlList":[]}}